<mxfile host="app.diagrams.net" modified="2023-12-25T12:14:44.511Z" agent="Mozilla/5.0 (Windows NT 10.0; Win64; x64) AppleWebKit/537.36 (KHTML, like Gecko) Chrome/120.0.0.0 Safari/537.36" etag="BpZ9G1UeoWtZzUKgo1Lt" version="22.1.11" type="github">
  <diagram id="C5RBs43oDa-KdzZeNtuy" name="Page-1">
    <mxGraphModel dx="2261" dy="738" grid="1" gridSize="10" guides="1" tooltips="1" connect="1" arrows="1" fold="1" page="1" pageScale="1" pageWidth="827" pageHeight="1169" math="0" shadow="0">
      <root>
        <mxCell id="WIyWlLk6GJQsqaUBKTNV-0" />
        <mxCell id="WIyWlLk6GJQsqaUBKTNV-1" parent="WIyWlLk6GJQsqaUBKTNV-0" />
        <mxCell id="C_FbvYTQxb7XPv14X7Yr-6" value="" style="edgeStyle=orthogonalEdgeStyle;rounded=0;orthogonalLoop=1;jettySize=auto;html=1;" edge="1" parent="WIyWlLk6GJQsqaUBKTNV-1" source="C_FbvYTQxb7XPv14X7Yr-0" target="C_FbvYTQxb7XPv14X7Yr-5">
          <mxGeometry relative="1" as="geometry" />
        </mxCell>
        <mxCell id="C_FbvYTQxb7XPv14X7Yr-0" value="" style="verticalLabelPosition=bottom;verticalAlign=top;html=1;shape=mxgraph.flowchart.on-page_reference;" vertex="1" parent="WIyWlLk6GJQsqaUBKTNV-1">
          <mxGeometry x="300" y="80" width="40" height="40" as="geometry" />
        </mxCell>
        <mxCell id="C_FbvYTQxb7XPv14X7Yr-9" value="" style="edgeStyle=orthogonalEdgeStyle;rounded=0;orthogonalLoop=1;jettySize=auto;html=1;exitX=0.5;exitY=1;exitDx=0;exitDy=0;" edge="1" parent="WIyWlLk6GJQsqaUBKTNV-1" source="C_FbvYTQxb7XPv14X7Yr-5" target="C_FbvYTQxb7XPv14X7Yr-8">
          <mxGeometry relative="1" as="geometry" />
        </mxCell>
        <mxCell id="C_FbvYTQxb7XPv14X7Yr-5" value="初始化" style="whiteSpace=wrap;html=1;verticalAlign=middle;" vertex="1" parent="WIyWlLk6GJQsqaUBKTNV-1">
          <mxGeometry x="260" y="170" width="120" height="60" as="geometry" />
        </mxCell>
        <mxCell id="C_FbvYTQxb7XPv14X7Yr-11" value="" style="edgeStyle=orthogonalEdgeStyle;rounded=0;orthogonalLoop=1;jettySize=auto;html=1;entryX=0;entryY=0.5;entryDx=0;entryDy=0;exitX=0.5;exitY=1;exitDx=0;exitDy=0;" edge="1" parent="WIyWlLk6GJQsqaUBKTNV-1" source="C_FbvYTQxb7XPv14X7Yr-8" target="C_FbvYTQxb7XPv14X7Yr-10">
          <mxGeometry relative="1" as="geometry">
            <Array as="points">
              <mxPoint x="140" y="451" />
            </Array>
          </mxGeometry>
        </mxCell>
        <mxCell id="C_FbvYTQxb7XPv14X7Yr-12" value="是" style="edgeLabel;html=1;align=center;verticalAlign=middle;resizable=0;points=[];" vertex="1" connectable="0" parent="C_FbvYTQxb7XPv14X7Yr-11">
          <mxGeometry x="-0.2131" y="-1" relative="1" as="geometry">
            <mxPoint as="offset" />
          </mxGeometry>
        </mxCell>
        <mxCell id="C_FbvYTQxb7XPv14X7Yr-27" style="edgeStyle=orthogonalEdgeStyle;rounded=0;orthogonalLoop=1;jettySize=auto;html=1;entryX=0.5;entryY=0;entryDx=0;entryDy=0;" edge="1" parent="WIyWlLk6GJQsqaUBKTNV-1" source="C_FbvYTQxb7XPv14X7Yr-8" target="C_FbvYTQxb7XPv14X7Yr-28">
          <mxGeometry relative="1" as="geometry">
            <mxPoint x="50" y="920" as="targetPoint" />
            <Array as="points">
              <mxPoint x="50" y="360" />
            </Array>
          </mxGeometry>
        </mxCell>
        <mxCell id="C_FbvYTQxb7XPv14X7Yr-31" value="否" style="edgeLabel;html=1;align=center;verticalAlign=middle;resizable=0;points=[];" vertex="1" connectable="0" parent="C_FbvYTQxb7XPv14X7Yr-27">
          <mxGeometry x="-0.9311" y="1" relative="1" as="geometry">
            <mxPoint as="offset" />
          </mxGeometry>
        </mxCell>
        <mxCell id="C_FbvYTQxb7XPv14X7Yr-8" value="是否成功" style="rhombus;whiteSpace=wrap;html=1;" vertex="1" parent="WIyWlLk6GJQsqaUBKTNV-1">
          <mxGeometry x="100" y="320" width="80" height="80" as="geometry" />
        </mxCell>
        <mxCell id="C_FbvYTQxb7XPv14X7Yr-15" value="" style="edgeStyle=orthogonalEdgeStyle;rounded=0;orthogonalLoop=1;jettySize=auto;html=1;exitX=0.5;exitY=1;exitDx=0;exitDy=0;" edge="1" parent="WIyWlLk6GJQsqaUBKTNV-1" source="C_FbvYTQxb7XPv14X7Yr-10" target="C_FbvYTQxb7XPv14X7Yr-14">
          <mxGeometry relative="1" as="geometry" />
        </mxCell>
        <mxCell id="C_FbvYTQxb7XPv14X7Yr-10" value="到项目目录下编译文件" style="whiteSpace=wrap;html=1;" vertex="1" parent="WIyWlLk6GJQsqaUBKTNV-1">
          <mxGeometry x="260" y="410" width="120" height="60" as="geometry" />
        </mxCell>
        <mxCell id="C_FbvYTQxb7XPv14X7Yr-13" value="如果没有目录创建目录，有目录删除目录下的文件" style="strokeWidth=2;html=1;shape=mxgraph.flowchart.document2;whiteSpace=wrap;size=0.25;" vertex="1" parent="WIyWlLk6GJQsqaUBKTNV-1">
          <mxGeometry x="450" y="170" width="100" height="60" as="geometry" />
        </mxCell>
        <mxCell id="C_FbvYTQxb7XPv14X7Yr-19" value="" style="edgeStyle=orthogonalEdgeStyle;rounded=0;orthogonalLoop=1;jettySize=auto;html=1;entryX=0;entryY=0.5;entryDx=0;entryDy=0;" edge="1" parent="WIyWlLk6GJQsqaUBKTNV-1" source="C_FbvYTQxb7XPv14X7Yr-14" target="C_FbvYTQxb7XPv14X7Yr-18">
          <mxGeometry relative="1" as="geometry">
            <mxPoint x="220" y="670" as="targetPoint" />
            <Array as="points">
              <mxPoint x="140" y="690" />
            </Array>
          </mxGeometry>
        </mxCell>
        <mxCell id="C_FbvYTQxb7XPv14X7Yr-20" value="是" style="edgeLabel;html=1;align=center;verticalAlign=middle;resizable=0;points=[];" vertex="1" connectable="0" parent="C_FbvYTQxb7XPv14X7Yr-19">
          <mxGeometry x="-0.1594" y="-1" relative="1" as="geometry">
            <mxPoint as="offset" />
          </mxGeometry>
        </mxCell>
        <mxCell id="C_FbvYTQxb7XPv14X7Yr-30" style="edgeStyle=orthogonalEdgeStyle;rounded=0;orthogonalLoop=1;jettySize=auto;html=1;entryX=0.5;entryY=0;entryDx=0;entryDy=0;" edge="1" parent="WIyWlLk6GJQsqaUBKTNV-1" source="C_FbvYTQxb7XPv14X7Yr-14" target="C_FbvYTQxb7XPv14X7Yr-28">
          <mxGeometry relative="1" as="geometry">
            <Array as="points">
              <mxPoint x="50" y="610" />
            </Array>
          </mxGeometry>
        </mxCell>
        <mxCell id="C_FbvYTQxb7XPv14X7Yr-32" value="否" style="edgeLabel;html=1;align=center;verticalAlign=middle;resizable=0;points=[];" vertex="1" connectable="0" parent="C_FbvYTQxb7XPv14X7Yr-30">
          <mxGeometry x="-0.8444" y="1" relative="1" as="geometry">
            <mxPoint as="offset" />
          </mxGeometry>
        </mxCell>
        <mxCell id="C_FbvYTQxb7XPv14X7Yr-14" value="是否成功" style="rhombus;whiteSpace=wrap;html=1;" vertex="1" parent="WIyWlLk6GJQsqaUBKTNV-1">
          <mxGeometry x="100" y="570" width="80" height="80" as="geometry" />
        </mxCell>
        <mxCell id="C_FbvYTQxb7XPv14X7Yr-22" value="" style="edgeStyle=orthogonalEdgeStyle;rounded=0;orthogonalLoop=1;jettySize=auto;html=1;" edge="1" parent="WIyWlLk6GJQsqaUBKTNV-1" source="C_FbvYTQxb7XPv14X7Yr-18" target="C_FbvYTQxb7XPv14X7Yr-21">
          <mxGeometry relative="1" as="geometry" />
        </mxCell>
        <mxCell id="C_FbvYTQxb7XPv14X7Yr-18" value="复制编译文件到编译目录" style="whiteSpace=wrap;html=1;" vertex="1" parent="WIyWlLk6GJQsqaUBKTNV-1">
          <mxGeometry x="260" y="660" width="120" height="60" as="geometry" />
        </mxCell>
        <mxCell id="C_FbvYTQxb7XPv14X7Yr-24" value="" style="edgeStyle=orthogonalEdgeStyle;rounded=0;orthogonalLoop=1;jettySize=auto;html=1;" edge="1" parent="WIyWlLk6GJQsqaUBKTNV-1" source="C_FbvYTQxb7XPv14X7Yr-21" target="C_FbvYTQxb7XPv14X7Yr-23">
          <mxGeometry relative="1" as="geometry" />
        </mxCell>
        <mxCell id="C_FbvYTQxb7XPv14X7Yr-21" value="压缩成一个文件" style="whiteSpace=wrap;html=1;" vertex="1" parent="WIyWlLk6GJQsqaUBKTNV-1">
          <mxGeometry x="260" y="770" width="120" height="60" as="geometry" />
        </mxCell>
        <mxCell id="C_FbvYTQxb7XPv14X7Yr-26" value="" style="edgeStyle=orthogonalEdgeStyle;rounded=0;orthogonalLoop=1;jettySize=auto;html=1;" edge="1" parent="WIyWlLk6GJQsqaUBKTNV-1" source="C_FbvYTQxb7XPv14X7Yr-23" target="C_FbvYTQxb7XPv14X7Yr-25">
          <mxGeometry relative="1" as="geometry" />
        </mxCell>
        <mxCell id="C_FbvYTQxb7XPv14X7Yr-23" value="文件上传服务器" style="whiteSpace=wrap;html=1;" vertex="1" parent="WIyWlLk6GJQsqaUBKTNV-1">
          <mxGeometry x="260" y="880" width="120" height="60" as="geometry" />
        </mxCell>
        <mxCell id="C_FbvYTQxb7XPv14X7Yr-25" value="服务器执行部署脚本" style="whiteSpace=wrap;html=1;" vertex="1" parent="WIyWlLk6GJQsqaUBKTNV-1">
          <mxGeometry x="260" y="980" width="120" height="60" as="geometry" />
        </mxCell>
        <mxCell id="C_FbvYTQxb7XPv14X7Yr-28" value="输出错误信息" style="whiteSpace=wrap;html=1;" vertex="1" parent="WIyWlLk6GJQsqaUBKTNV-1">
          <mxGeometry x="-10" y="920" width="120" height="60" as="geometry" />
        </mxCell>
      </root>
    </mxGraphModel>
  </diagram>
</mxfile>
